<mxfile host="app.diagrams.net" modified="2022-03-11T12:34:32.354Z" agent="5.0 (Windows)" etag="TTZ7Lk7wxOH1U7Krl4yT" version="16.6.6" type="github">
  <diagram id="huIT8yfWPjrIG61Vbd0z" name="Page-1">
    <mxGraphModel dx="692" dy="376" grid="1" gridSize="10" guides="1" tooltips="1" connect="1" arrows="1" fold="1" page="1" pageScale="1" pageWidth="850" pageHeight="1100" math="0" shadow="0">
      <root>
        <mxCell id="0" />
        <mxCell id="1" parent="0" />
        <mxCell id="TLMzvcdvNROPmVEpLCWg-16" value="" style="triangle;whiteSpace=wrap;html=1;fillColor=#fff2cc;dashed=1;rotation=-108.9;strokeColor=none;opacity=35;" vertex="1" parent="1">
          <mxGeometry x="158" y="135" width="99.27" height="310" as="geometry" />
        </mxCell>
        <mxCell id="TLMzvcdvNROPmVEpLCWg-15" value="" style="triangle;whiteSpace=wrap;html=1;fillColor=#fff2cc;dashed=1;rotation=-90;strokeColor=none;opacity=35;" vertex="1" parent="1">
          <mxGeometry x="331.36" y="113" width="99.27" height="310" as="geometry" />
        </mxCell>
        <mxCell id="TLMzvcdvNROPmVEpLCWg-14" value="" style="triangle;whiteSpace=wrap;html=1;fillColor=#fff2cc;dashed=1;rotation=-69.9;strokeColor=none;opacity=35;" vertex="1" parent="1">
          <mxGeometry x="498" y="136" width="99.27" height="310" as="geometry" />
        </mxCell>
        <mxCell id="TLMzvcdvNROPmVEpLCWg-6" value="" style="triangle;whiteSpace=wrap;html=1;fillColor=none;dashed=1;rotation=-69.9;" vertex="1" parent="1">
          <mxGeometry x="498" y="136" width="99.27" height="310" as="geometry" />
        </mxCell>
        <mxCell id="TLMzvcdvNROPmVEpLCWg-5" value="" style="triangle;whiteSpace=wrap;html=1;fillColor=none;dashed=1;rotation=-90;" vertex="1" parent="1">
          <mxGeometry x="331.36" y="113" width="99.27" height="310" as="geometry" />
        </mxCell>
        <mxCell id="Fn60unkbMZBintz-3KZK-5" value="" style="triangle;whiteSpace=wrap;html=1;fillColor=none;dashed=1;rotation=-108.9;" parent="1" vertex="1">
          <mxGeometry x="158" y="135" width="99.27" height="310" as="geometry" />
        </mxCell>
        <mxCell id="Fn60unkbMZBintz-3KZK-12" value="" style="ellipse;whiteSpace=wrap;html=1;fontSize=8;fillColor=default;strokeColor=none;" parent="1" vertex="1">
          <mxGeometry x="80" y="263" width="600" height="267" as="geometry" />
        </mxCell>
        <mxCell id="Fn60unkbMZBintz-3KZK-2" value="" style="fontColor=#0066CC;verticalAlign=top;verticalLabelPosition=bottom;labelPosition=center;align=center;html=1;outlineConnect=0;fillColor=#CCCCCC;strokeColor=#000000;gradientColor=none;gradientDirection=north;strokeWidth=2;shape=mxgraph.networks.satellite;rotation=-65;" parent="1" vertex="1">
          <mxGeometry x="371" y="197" width="20" height="20" as="geometry" />
        </mxCell>
        <mxCell id="Fn60unkbMZBintz-3KZK-3" value="" style="shape=image;html=1;verticalAlign=top;verticalLabelPosition=bottom;labelBackgroundColor=#ffffff;imageAspect=0;aspect=fixed;image=https://cdn4.iconfinder.com/data/icons/game-of-thrones-4/64/game_of_thrones_game_thrones_series_element_fire_flame_heat-128.png;rotation=-16.8;" parent="1" vertex="1">
          <mxGeometry x="184" y="266" width="28" height="28" as="geometry" />
        </mxCell>
        <mxCell id="Fn60unkbMZBintz-3KZK-4" value="" style="shape=mxgraph.cisco.wireless.ground_terminal;html=1;pointerEvents=1;dashed=0;fillColor=#2E2A2A;strokeColor=#ffffff;strokeWidth=2;verticalLabelPosition=bottom;verticalAlign=top;align=center;outlineConnect=0;rotation=-71.7;direction=south;" parent="1" vertex="1">
          <mxGeometry x="539" y="268" width="21" height="14" as="geometry" />
        </mxCell>
        <mxCell id="Fn60unkbMZBintz-3KZK-9" value="&lt;font style=&quot;font-size: 8px&quot;&gt;Fire&lt;/font&gt;" style="text;html=1;strokeColor=none;fillColor=none;align=center;verticalAlign=middle;whiteSpace=wrap;rounded=0;" parent="1" vertex="1">
          <mxGeometry x="198" y="260" width="60" height="30" as="geometry" />
        </mxCell>
        <mxCell id="Fn60unkbMZBintz-3KZK-10" value="" style="endArrow=none;html=1;fontSize=8;curved=1;exitX=0.106;exitY=0.172;exitDx=0;exitDy=0;exitPerimeter=0;entryX=0.895;entryY=0.167;entryDx=0;entryDy=0;entryPerimeter=0;" parent="1" source="Fn60unkbMZBintz-3KZK-12" target="Fn60unkbMZBintz-3KZK-12" edge="1">
          <mxGeometry width="50" height="50" relative="1" as="geometry">
            <mxPoint x="240" y="266.54" as="sourcePoint" />
            <mxPoint x="560" y="266.54" as="targetPoint" />
            <Array as="points">
              <mxPoint x="400" y="220" />
            </Array>
          </mxGeometry>
        </mxCell>
        <mxCell id="Fn60unkbMZBintz-3KZK-13" value="Ground&lt;br&gt;station" style="text;html=1;strokeColor=none;fillColor=none;align=center;verticalAlign=middle;whiteSpace=wrap;rounded=0;fontSize=8;" parent="1" vertex="1">
          <mxGeometry x="512" y="294" width="60" height="30" as="geometry" />
        </mxCell>
        <mxCell id="Fn60unkbMZBintz-3KZK-14" value="&lt;div&gt;LEO&lt;/div&gt;&lt;div&gt;satellites&lt;br&gt;&lt;/div&gt;" style="text;html=1;strokeColor=none;fillColor=none;align=center;verticalAlign=middle;whiteSpace=wrap;rounded=0;fontSize=8;" parent="1" vertex="1">
          <mxGeometry x="350" y="167" width="60" height="30" as="geometry" />
        </mxCell>
        <mxCell id="TLMzvcdvNROPmVEpLCWg-2" value="" style="fontColor=#0066CC;verticalAlign=top;verticalLabelPosition=bottom;labelPosition=center;align=center;html=1;outlineConnect=0;fillColor=#CCCCCC;strokeColor=#000000;gradientColor=none;gradientDirection=north;strokeWidth=2;shape=mxgraph.networks.satellite;rotation=-90;" vertex="1" parent="1">
          <mxGeometry x="174" y="226" width="20" height="20" as="geometry" />
        </mxCell>
        <mxCell id="TLMzvcdvNROPmVEpLCWg-3" value="" style="fontColor=#0066CC;verticalAlign=top;verticalLabelPosition=bottom;labelPosition=center;align=center;html=1;outlineConnect=0;fillColor=#CCCCCC;strokeColor=#000000;gradientColor=none;gradientDirection=north;strokeWidth=2;shape=mxgraph.networks.satellite;rotation=-20;" vertex="1" parent="1">
          <mxGeometry x="561" y="223" width="20" height="20" as="geometry" />
        </mxCell>
        <mxCell id="TLMzvcdvNROPmVEpLCWg-18" value="" style="endArrow=none;dashed=1;html=1;rounded=0;entryX=0.15;entryY=0;entryDx=0;entryDy=0;entryPerimeter=0;startArrow=diamondThin;startFill=1;" edge="1" parent="1" target="Fn60unkbMZBintz-3KZK-2">
          <mxGeometry width="50" height="50" relative="1" as="geometry">
            <mxPoint x="194" y="232" as="sourcePoint" />
            <mxPoint x="360" y="210" as="targetPoint" />
          </mxGeometry>
        </mxCell>
        <mxCell id="TLMzvcdvNROPmVEpLCWg-19" value="" style="endArrow=none;dashed=1;html=1;rounded=0;endFill=0;" edge="1" parent="1">
          <mxGeometry width="50" height="50" relative="1" as="geometry">
            <mxPoint x="391" y="209" as="sourcePoint" />
            <mxPoint x="562" y="239" as="targetPoint" />
          </mxGeometry>
        </mxCell>
        <mxCell id="TLMzvcdvNROPmVEpLCWg-20" value="" style="endArrow=none;dashed=1;html=1;rounded=0;endFill=0;startArrow=diamondThin;startFill=1;" edge="1" parent="1">
          <mxGeometry width="50" height="50" relative="1" as="geometry">
            <mxPoint x="556" y="263" as="sourcePoint" />
            <mxPoint x="565" y="245" as="targetPoint" />
          </mxGeometry>
        </mxCell>
      </root>
    </mxGraphModel>
  </diagram>
</mxfile>
